<?xml version="1.0" encoding="UTF-8"?>
<svg width="1000" height="500" viewBox="0 0 1000 500" xmlns="http://www.w3.org/2000/svg">
  <!-- Background -->
  <rect width="1000" height="500" fill="#f8fafc"/>
  
  <!-- Continents -->
  <!-- North America -->
  <path d="M150,100 L200,80 L250,90 L300,80 L350,100 L400,90 L450,110 L500,100 L550,120 L600,110 L650,130 L700,120 L750,140 L800,130 L850,150 L900,140 L950,160 L1000,150 L1000,200 L950,220 L900,210 L850,230 L800,220 L750,240 L700,230 L650,250 L600,240 L550,260 L500,250 L450,270 L400,260 L350,280 L300,270 L250,290 L200,280 L150,300 L100,290 L50,310 L0,300 L0,250 L50,230 L100,240 L150,220 Z" 
        fill="#e2e8f0" stroke="#94a3b8" stroke-width="1"/>
  
  <!-- South America -->
  <path d="M250,300 L300,280 L350,290 L400,280 L450,300 L500,290 L550,310 L600,300 L650,320 L700,310 L750,330 L800,320 L850,340 L900,330 L950,350 L1000,340 L1000,400 L950,420 L900,410 L850,430 L800,420 L750,440 L700,430 L650,450 L600,440 L550,460 L500,450 L450,470 L400,460 L350,480 L300,470 L250,490 L200,480 L150,500 L100,490 L50,510 L0,500 L0,450 L50,430 L100,440 L150,420 L200,430 L250,410 Z" 
        fill="#e2e8f0" stroke="#94a3b8" stroke-width="1"/>
  
  <!-- Europe -->
  <path d="M400,100 L450,80 L500,90 L550,80 L600,100 L650,90 L700,110 L750,100 L800,120 L850,110 L900,130 L950,120 L1000,140 L1000,180 L950,200 L900,190 L850,210 L800,200 L750,220 L700,210 L650,230 L600,220 L550,240 L500,230 L450,250 L400,240 L350,260 L300,250 L250,270 L200,260 L150,280 L100,270 L50,290 L0,280 L0,240 L50,220 L100,230 L150,210 L200,220 L250,200 L300,210 L350,190 L400,200 Z" 
        fill="#e2e8f0" stroke="#94a3b8" stroke-width="1"/>
  
  <!-- Africa -->
  <path d="M400,200 L450,180 L500,190 L550,180 L600,200 L650,190 L700,210 L750,200 L800,220 L850,210 L900,230 L950,220 L1000,240 L1000,280 L950,300 L900,290 L850,310 L800,300 L750,320 L700,310 L650,330 L600,320 L550,340 L500,330 L450,350 L400,340 L350,360 L300,350 L250,370 L200,360 L150,380 L100,370 L50,390 L0,380 L0,340 L50,320 L100,330 L150,310 L200,320 L250,300 L300,310 L350,290 L400,300 Z" 
        fill="#e2e8f0" stroke="#94a3b8" stroke-width="1"/>
  
  <!-- Asia -->
  <path d="M600,50 L650,30 L700,40 L750,30 L800,50 L850,40 L900,60 L950,50 L1000,70 L1050,60 L1100,80 L1150,70 L1200,90 L1250,80 L1300,100 L1350,90 L1400,110 L1450,100 L1500,120 L1550,110 L1600,130 L1650,120 L1700,140 L1750,130 L1800,150 L1850,140 L1900,160 L1950,150 L2000,170 L2000,210 L1950,230 L1900,220 L1850,240 L1800,230 L1750,250 L1700,240 L1650,260 L1600,250 L1550,270 L1500,260 L1450,280 L1400,270 L1350,290 L1300,280 L1250,300 L1200,290 L1150,310 L1100,300 L1050,320 L1000,310 L950,330 L900,320 L850,340 L800,330 L750,350 L700,340 L650,360 L600,350 L550,370 L500,360 L450,380 L400,370 L350,390 L300,380 L250,400 L200,390 L150,410 L100,400 L50,420 L0,410 L0,370 L50,350 L100,360 L150,340 L200,350 L250,330 L300,340 L350,320 L400,330 L450,310 L500,320 L550,300 L600,310 Z" 
        fill="#e2e8f0" stroke="#94a3b8" stroke-width="1"/>
  
  <!-- Australia -->
  <path d="M800,300 L850,280 L900,290 L950,280 L1000,300 L1050,290 L1100,310 L1150,300 L1200,320 L1250,310 L1300,330 L1350,320 L1400,340 L1450,330 L1500,350 L1550,340 L1600,360 L1650,350 L1700,370 L1750,360 L1800,380 L1850,370 L1900,390 L1950,380 L2000,400 L2000,440 L1950,460 L1900,450 L1850,470 L1800,460 L1750,480 L1700,470 L1650,490 L1600,480 L1550,500 L1500,490 L1450,510 L1400,500 L1350,520 L1300,510 L1250,530 L1200,520 L1150,540 L1100,530 L1050,550 L1000,540 L950,560 L900,550 L850,570 L800,560 L750,580 L700,570 L650,590 L600,580 L550,600 L500,590 L450,610 L400,600 L350,620 L300,610 L250,630 L200,620 L150,640 L100,630 L50,650 L0,640 L0,600 L50,580 L100,590 L150,570 L200,580 L250,560 L300,570 L350,550 L400,560 L450,540 L500,550 L550,530 L600,540 L650,520 L700,530 L750,510 L800,520 Z" 
        fill="#e2e8f0" stroke="#94a3b8" stroke-width="1"/>
  
  <!-- Grid Lines -->
  <g stroke="#cbd5e1" stroke-width="0.5" opacity="0.5">
    <line x1="0" y1="100" x2="1000" y2="100"/>
    <line x1="0" y1="200" x2="1000" y2="200"/>
    <line x1="0" y1="300" x2="1000" y2="300"/>
    <line x1="0" y1="400" x2="1000" y2="400"/>
    <line x1="200" y1="0" x2="200" y2="500"/>
    <line x1="400" y1="0" x2="400" y2="500"/>
    <line x1="600" y1="0" x2="600" y2="500"/>
    <line x1="800" y1="0" x2="800" y2="500"/>
  </g>
</svg> 